<?xml version="1.0" encoding="UTF-8"?>
<svg fill="rgb(29, 58, 109)" version="1.1" viewBox="0 0 270 50" xmlns="http://www.w3.org/2000/svg">
 <g>
  <path d="m11 0c-6.094 0-11 4.906-11 11v28c0 6.094 4.906 11 11 11h28c6.094 0 11-4.906 11-11v-28c0-6.094-4.906-11-11-11h-28zm1.1562 11.818h3.7852l8.8965 21.732h0.30664l8.8984-21.732h3.7852v26.182h-2.9668v-19.893h-0.25586l-8.1816 19.893h-2.8633l-8.1816-19.893h-0.25586v19.893h-2.9668v-26.182z"/>
  <path d="m133 0c-6.094 0-11 4.906-11 11v28c0 6.094 4.906 11 11 11h28c6.094 0 11-4.906 11-11v-28c0-6.094-4.906-11-11-11zm1.1562 11.818h3.7852l8.8965 21.732h0.30664l8.8984-21.732h3.7852v26.182h-2.9668v-19.893h-0.25586l-8.1816 19.893h-2.8633l-8.1816-19.893h-0.25586v19.893h-2.9668z"/>
  <path d="m77.124 38-3.096-7.956h-10.188l-3.06 7.956h-3.276l10.044-25.812h2.916l10.008 25.812zm-8.172-22.464-4.032 11.628h8.136z"/>
  <path d="m102.4 12.296c3.36 0 5.808 0.66 7.344 1.98s2.304 3.18 2.304 5.58c0 1.056-0.18 2.076-0.54 3.06-0.336 0.96-0.9 1.824-1.692 2.592s-1.848 1.38-3.168 1.836c-1.32 0.432-2.94 0.648-4.86 0.648h-2.9524v10.008h-3.24v-25.704h6.8044zm-0.288 2.772h-3.2764v10.152h2.5924c1.632 0 2.988-0.168 4.068-0.504 1.08-0.36 1.884-0.924 2.412-1.692s0.792-1.776 0.792-3.024c0-1.656-0.528-2.892-1.584-3.708s-2.724-1.224-5.004-1.224z"/>
  <path d="m199.12 38-3.096-7.956h-10.188l-3.06 7.956h-3.276l10.044-25.812h2.916l10.008 25.812zm-8.172-22.464-4.032 11.628h8.136z"/>
  <path d="m236.12 38h-3.888l-11.628-13.032v13.032h-3.24v-25.704h3.24v12.456l11.34-12.456h3.672l-11.16 12.492 11.664 13.212z"/>
  <path d="m262.14 14.78c-1.368 0-2.604 0.24-3.708 0.72-1.104 0.456-2.04 1.14-2.808 2.052-0.768 0.888-1.356 1.98-1.764 3.276-0.408 1.272-0.612 2.712-0.612 4.32 0 2.112 0.324 3.948 0.972 5.508 0.672 1.56 1.656 2.76 2.952 3.6 1.32 0.84 2.964 1.26 4.932 1.26 1.128 0 2.196-0.096 3.204-0.288s1.992-0.432 2.952-0.72v2.808c-0.96 0.36-1.956 0.624-2.988 0.792-1.008 0.168-2.22 0.252-3.636 0.252-2.616 0-4.8-0.54-6.552-1.62s-3.072-2.616-3.96-4.608c-0.864-1.992-1.296-4.332-1.296-7.02 0-1.944 0.264-3.72 0.792-5.328 0.552-1.608 1.344-3 2.376-4.176 1.056-1.176 2.352-2.076 3.888-2.7 1.536-0.648 3.3-0.972 5.292-0.972 1.32 0 2.592 0.132 3.816 0.396s2.316 0.636 3.276 1.116l-1.296 2.736c-0.792-0.36-1.68-0.684-2.664-0.972-0.96-0.288-2.016-0.432-3.168-0.432z"/>
 </g>
</svg>
